<svg width="54" height="58" viewBox="0 0 54 58" fill="none" xmlns="http://www.w3.org/2000/svg">
<mask id="mask0_141_69" style="mask-type:luminance" maskUnits="userSpaceOnUse" x="0" y="0" width="54" height="58">
<path d="M0.325684 0.848877H53.0352V57.1508H0.325684V0.848877Z" fill="white"/>
</mask>
<g mask="url(#mask0_141_69)">
<path d="M53.2365 29.0036C53.2365 29.9283 53.1941 30.8455 53.1094 31.7627C53.0246 32.6836 52.8974 33.5933 52.7279 34.4955C52.5619 35.4014 52.35 36.296 52.0992 37.1794C51.8484 38.059 51.5552 38.9273 51.2232 39.7806C50.8912 40.6301 50.5239 41.4646 50.1141 42.2765C49.7044 43.0885 49.2594 43.8816 48.779 44.6484C48.2987 45.4153 47.783 46.152 47.232 46.8662C46.6809 47.5804 46.1017 48.2608 45.4871 48.9149C44.876 49.5652 44.2332 50.1854 43.5656 50.7681C42.8945 51.3545 42.1987 51.9033 41.4782 52.4145C40.7576 52.9257 40.0159 53.3993 39.2529 53.8354C38.49 54.2714 37.7059 54.6624 36.9041 55.0157C36.1058 55.369 35.2899 55.681 34.4599 55.9479C33.6334 56.2148 32.7927 56.4404 31.9415 56.6208C31.0938 56.7975 30.2355 56.9328 29.3737 57.023C28.5118 57.1132 27.6465 57.1583 26.7811 57.1583C25.9157 57.1583 25.0504 57.1132 24.1885 57.023C23.3267 56.9328 22.4684 56.7975 21.6207 56.6208C20.7695 56.4404 19.9324 56.2148 19.1023 55.9479C18.2723 55.681 17.4564 55.369 16.6581 55.0157C15.8563 54.6624 15.0757 54.2714 14.3093 53.8354C13.5463 53.3993 12.8046 52.9257 12.084 52.4145C11.3635 51.9033 10.6677 51.3545 9.99657 50.7681C9.329 50.1854 8.68616 49.5652 8.07511 48.9149C7.46052 48.2608 6.88126 47.5804 6.33025 46.8662C5.77924 46.152 5.26709 45.4153 4.78319 44.6484C4.30283 43.8816 3.85778 43.0885 3.44806 42.2765C3.04187 41.4646 2.671 40.6301 2.33898 39.7806C2.00696 38.9273 1.71733 38.059 1.46302 37.1794C1.21224 36.296 1.00385 35.4014 0.834306 34.4955C0.664765 33.5933 0.53761 32.6836 0.452839 31.7627C0.368069 30.8455 0.325684 29.9283 0.325684 29.0036C0.325684 28.0826 0.368069 27.1617 0.452839 26.2445C0.53761 25.3273 0.664765 24.4176 0.834306 23.5117C1.00385 22.6058 1.21224 21.7149 1.46302 20.8316C1.71733 19.9482 2.00696 19.0799 2.33898 18.2304C2.671 17.3771 3.04187 16.5464 3.44806 15.7307C3.85778 14.9187 4.30283 14.1293 4.78319 13.3625C5.26709 12.5957 5.77924 11.8552 6.33025 11.1409C6.88126 10.4305 7.46052 9.74637 8.07511 9.09607C8.68616 8.44201 9.329 7.82553 9.99657 7.23913C10.6677 6.65649 11.3635 6.10768 12.084 5.5927C12.8046 5.08148 13.5463 4.60785 14.3093 4.17181C15.0757 3.73953 15.8563 3.34484 16.6581 2.99149C17.4564 2.63815 18.2723 2.32991 19.1023 2.06303C19.9324 1.79238 20.7695 1.5706 21.6207 1.39017C22.4684 1.20974 23.3267 1.07442 24.1885 0.9842C25.0504 0.893985 25.9157 0.848877 26.7811 0.848877C27.6465 0.848877 28.5118 0.893985 29.3737 0.9842C30.2355 1.07442 31.0938 1.20974 31.9415 1.39017C32.7927 1.5706 33.6334 1.79238 34.4599 2.06303C35.2899 2.32991 36.1058 2.63815 36.9041 2.99149C37.7059 3.34484 38.49 3.73953 39.2529 4.17181C40.0159 4.60785 40.7576 5.08148 41.4782 5.5927C42.1987 6.10768 42.8945 6.65649 43.5656 7.23913C44.2332 7.82553 44.876 8.44201 45.4871 9.09607C46.1017 9.74637 46.6809 10.4305 47.232 11.1409C47.783 11.8552 48.2987 12.5957 48.779 13.3625C49.2594 14.1293 49.7044 14.9187 50.1141 15.7307C50.5239 16.5464 50.8912 17.3771 51.2232 18.2304C51.5552 19.0799 51.8484 19.9482 52.0992 20.8316C52.35 21.7149 52.5619 22.6058 52.7279 23.5117C52.8974 24.4176 53.0246 25.3273 53.1094 26.2445C53.1941 27.1617 53.2365 28.0826 53.2365 29.0036Z" fill="#092E20"/>
</g>
<path d="M10.9501 21.4556H13.2389V32.7663C12.0662 33.0031 11.2044 33.0971 10.2684 33.0971C7.47451 33.0971 6.01929 31.7514 6.01929 29.1615C6.01929 26.673 7.56281 25.0529 9.95758 25.0529C10.3284 25.0529 10.611 25.0867 10.9501 25.1807V21.4556ZM10.9501 27.1467C10.6852 27.0527 10.4627 27.0226 10.1801 27.0226C9.01804 27.0226 8.35047 27.7819 8.35047 29.1164C8.35047 30.417 8.98978 31.1312 10.1624 31.1312C10.4167 31.1312 10.6251 31.1161 10.9501 31.0673V27.1467Z" fill="#EDF1F4"/>
<path d="M16.8806 25.2297V30.8944C16.8806 32.8453 16.7463 33.7813 16.3437 34.5895C15.9728 35.3676 15.4818 35.86 14.4717 36.3976L12.3489 35.3187C13.3591 34.8113 13.85 34.3677 14.1608 33.6873C14.4893 32.9882 14.5918 32.1762 14.5918 30.0524V25.2297H16.8806ZM14.5918 21.4669H16.8806V23.9742H14.5918V21.4669Z" fill="#EDF1F4"/>
<path d="M18.2616 25.7822C19.2718 25.2748 20.2396 25.053 21.2922 25.053C22.4684 25.053 23.2419 25.3875 23.581 26.0378C23.7752 26.4025 23.8353 26.8798 23.8353 27.8948V32.8604C22.8074 33.0182 21.5182 33.131 20.5646 33.131C18.6502 33.131 17.7883 32.4168 17.7883 30.8305C17.7883 29.1164 18.9327 28.3233 21.7407 28.0677V27.5301C21.7407 27.0828 21.5324 26.9249 20.9531 26.9249C20.1054 26.9249 19.1553 27.1806 18.2616 27.673V25.7822ZM21.8432 29.6728C20.3279 29.8306 19.8369 30.0825 19.8369 30.7178C19.8369 31.1951 20.1195 31.4169 20.7447 31.4169C21.0873 31.4169 21.3981 31.3831 21.8432 31.3042V29.6728Z" fill="#EDF1F4"/>
<path d="M24.9478 25.6093C26.3005 25.2297 27.4167 25.053 28.5434 25.053C29.7196 25.053 30.5673 25.3387 31.0724 25.895C31.5457 26.4175 31.6941 26.9888 31.6941 28.2105V33.0032H29.4053V28.3045C29.4053 27.3685 29.1086 27.0227 28.2927 27.0227C27.9818 27.0227 27.6993 27.0528 27.2366 27.1956V33.0032H24.9478V25.6093Z" fill="#EDF1F4"/>
<path d="M32.5843 34.3376C33.3861 34.7812 34.1914 34.9879 35.0356 34.9879C36.5367 34.9879 37.176 34.3376 37.176 32.7814C37.176 32.7664 37.176 32.7513 37.176 32.7325C36.731 32.9731 36.286 33.0671 35.689 33.0671C33.6828 33.0671 32.4077 31.6537 32.4077 29.4171C32.4077 26.6392 34.2939 25.068 37.6352 25.068C38.6171 25.068 39.5249 25.1808 40.6234 25.4176L39.8393 27.1805C39.2317 27.0527 39.7898 27.1655 39.3306 27.1166V27.3685L39.3589 28.4022L39.3765 29.7329C39.3907 30.0674 39.3907 30.402 39.4048 30.7328C39.4048 31.0372 39.4048 31.1801 39.4048 31.4019C39.4048 33.4956 39.2423 34.4805 38.7514 35.2886C38.0379 36.4802 36.8052 37.0666 35.0497 37.0666C34.1596 37.0666 33.3861 36.9238 32.5843 36.5893V34.3376ZM37.1301 27.0377C37.1019 27.0377 37.0736 27.0377 37.056 27.0377H36.8935C36.4484 27.0227 35.9292 27.1467 35.5725 27.3873C35.0215 27.7181 34.7389 28.3233 34.7389 29.1803C34.7389 30.402 35.304 31.0974 36.3142 31.0974C36.625 31.0974 36.8794 31.0372 37.176 30.9395V30.1013C37.176 29.8156 37.1619 29.4961 37.1619 29.1615L37.1478 28.0376L37.1337 27.2256V27.0377H37.1301Z" fill="#EDF1F4"/>
<path d="M44.1767 25.0228C46.4655 25.0228 47.8606 26.5602 47.8606 29.0524C47.8606 31.6086 46.4054 33.2099 44.0884 33.2099C41.7996 33.2099 40.3867 31.6687 40.3867 29.1953C40.3867 26.6242 41.8419 25.0228 44.1767 25.0228ZM44.1307 31.2402C45.0067 31.2402 45.5295 30.4658 45.5295 29.1164C45.5295 27.7819 45.0244 26.9888 44.1449 26.9888C43.2407 26.9888 42.7214 27.7669 42.7214 29.1164C42.7214 30.4658 43.2407 31.2402 44.1307 31.2402Z" fill="#EDF1F4"/>
</svg>
