<svg width="50" height="52" viewBox="0 0 50 52" fill="none" xmlns="http://www.w3.org/2000/svg">
<g clip-path="url(#clip0_138_1280)">
<mask id="mask0_138_1280" style="mask-type:luminance" maskUnits="userSpaceOnUse" x="-5" y="0" width="50" height="51">
<path d="M-4.31982 0.879028H44.8433V50.4916H-4.31982V0.879028Z" fill="white"/>
</mask>
<g mask="url(#mask0_138_1280)">
<path d="M-4.31982 0.879028H45.4669V57.4012H-4.31982V0.879028Z" fill="white"/>
<path d="M-4.31982 0.879028H44.8433V50.4916H-4.31982V0.879028Z" fill="white"/>
<path d="M-4.31982 0.879028H44.8433V50.4916H-4.31982V0.879028Z" fill="#EDF1F4"/>
</g>
<mask id="mask1_138_1280" style="mask-type:luminance" maskUnits="userSpaceOnUse" x="30" y="17" width="10" height="10">
<path d="M30.9717 17.8384H39.1808V26.318H30.9717V17.8384Z" fill="white"/>
</mask>
<g mask="url(#mask1_138_1280)">
<path d="M38.7314 22.1775H38.7281C38.7281 24.1517 37.1394 25.7549 35.1831 25.7549C33.2236 25.7483 31.6382 24.1451 31.6382 22.1709C31.6382 21.0381 32.1634 20.0278 32.9774 19.372L32.9971 19.3521C33.112 19.266 33.2367 19.1798 33.3647 19.097C33.3647 19.097 33.3811 19.097 33.3811 19.0805C33.4369 19.054 33.4927 19.0109 33.5485 18.9778C33.5649 18.9778 33.5781 18.9679 33.5912 18.9679C33.647 18.938 33.7192 18.9082 33.7881 18.8817C33.8571 18.8519 33.9325 18.8254 33.9883 18.7956C34.0015 18.7956 34.0146 18.7824 34.0277 18.7824C34.0835 18.7691 34.1393 18.7393 34.1984 18.726C34.2115 18.726 34.2378 18.7128 34.2542 18.7128C34.3231 18.6962 34.3822 18.683 34.4512 18.6697H34.4676L34.6776 18.6267C34.6908 18.6267 34.717 18.6267 34.7334 18.6101C34.7892 18.6101 34.845 18.5969 34.9041 18.5969H34.9698C35.042 18.5969 35.1142 18.5836 35.1963 18.5836H35.3801C35.4359 18.5836 35.4785 18.5836 35.5376 18.5969H35.5639C35.6755 18.6101 35.7904 18.6267 35.902 18.6532C37.5267 19.0142 38.7281 20.4518 38.7314 22.1775Z" fill="#99415B"/>
</g>
<mask id="mask2_138_1280" style="mask-type:luminance" maskUnits="userSpaceOnUse" x="16" y="0" width="24" height="17">
<path d="M16.687 0.879028H39.181V16.9904H16.687V0.879028Z" fill="white"/>
</mask>
<g mask="url(#mask2_138_1280)">
<path d="M16.7266 0.859131H38.8857L33.8014 15.9834C33.588 16.0264 33.3779 16.096 33.1679 16.1689L27.8176 5.16189L22.4477 16.096C22.2344 16.0264 22.0079 15.9834 21.7847 15.9403L16.7266 0.859131Z" fill="#99415B"/>
</g>
<path d="M17.0645 22.1643C17.0645 22.161 17.0645 22.1576 17.0645 22.1543C17.0645 20.4948 18.1903 19.097 19.7166 18.7062L19.7396 18.6995V18.6962C19.8085 18.683 19.8676 18.6697 19.9365 18.6565H19.9759C20.035 18.6399 20.0908 18.6399 20.1466 18.6267H20.2057C20.2615 18.6267 20.3041 18.6101 20.3599 18.6101H20.9081C20.9639 18.6101 21.0066 18.6267 21.0525 18.6267C21.0788 18.6267 21.0919 18.6267 21.1214 18.6399C21.1772 18.6532 21.2166 18.6532 21.2757 18.6697C21.2888 18.6697 21.3053 18.6697 21.3315 18.683L21.5285 18.7227H21.5449C21.6007 18.7393 21.6565 18.7525 21.7123 18.7824C21.7254 18.7824 21.7418 18.7956 21.7681 18.7956C21.8107 18.8122 21.8665 18.8254 21.9125 18.8519C21.9256 18.8519 21.9387 18.8652 21.9519 18.8652C22.0077 18.895 22.0635 18.9082 22.1226 18.938H22.1357C22.2046 18.9645 22.267 19.001 22.3228 19.0407L22.3195 19.0374H22.3326C22.3917 19.0672 22.4475 19.107 22.5066 19.1368C22.5197 19.1368 22.5197 19.15 22.5296 19.15C22.5887 19.1798 22.6313 19.2229 22.6871 19.2494L22.7035 19.266C22.8709 19.3918 23.0252 19.5343 23.1795 19.6767L23.1959 19.6899C23.7966 20.3292 24.1675 21.1938 24.1675 22.1477C24.1675 22.1543 24.1675 22.1576 24.1675 22.1643C24.1018 24.0888 22.5394 25.6257 20.6192 25.6257C18.6991 25.6257 17.1367 24.0888 17.0677 22.1709V22.1643H17.0645Z" fill="#99415B"/>
<path d="M9.42653 22.1775C9.42653 22.4093 9.40355 22.6445 9.36088 22.8731C9.31493 23.1049 9.246 23.3269 9.15737 23.5455C9.06875 23.7641 8.96043 23.9695 8.82914 24.1649C8.70113 24.3603 8.55342 24.5392 8.3893 24.7081C8.2219 24.8737 8.04466 25.0228 7.851 25.152C7.65734 25.2812 7.45055 25.3938 7.2372 25.4832C7.02056 25.5726 6.80065 25.6389 6.57088 25.6853C6.34112 25.7316 6.11135 25.7548 5.8783 25.7548C5.64526 25.7548 5.41549 25.7316 5.18573 25.6853C4.95596 25.6389 4.73604 25.5726 4.51941 25.4832C4.30606 25.3938 4.09927 25.2812 3.90561 25.152C3.71195 25.0228 3.5347 24.8737 3.3673 24.7081C3.20319 24.5392 3.05548 24.3603 2.92747 24.1649C2.79617 23.9695 2.68786 23.7641 2.59923 23.5455C2.51061 23.3269 2.44168 23.1049 2.39573 22.8731C2.35305 22.6445 2.33008 22.4093 2.33008 22.1775C2.33008 21.9423 2.35305 21.7071 2.39573 21.4786C2.44168 21.2467 2.51061 21.0248 2.59923 20.8061C2.68786 20.5875 2.79617 20.3822 2.92747 20.1867C3.05548 19.9913 3.20319 19.8124 3.3673 19.6435C3.5347 19.4779 3.71195 19.3288 3.90561 19.1997C4.09927 19.0705 4.30606 18.9578 4.51941 18.8684C4.73604 18.779 4.95596 18.7127 5.18573 18.6664C5.41549 18.62 5.64526 18.5968 5.8783 18.5968C6.11135 18.5968 6.34112 18.62 6.57088 18.6664C6.80065 18.7127 7.02056 18.779 7.2372 18.8684C7.45055 18.9578 7.65734 19.0705 7.851 19.1997C8.04466 19.3288 8.2219 19.4779 8.3893 19.6435C8.55342 19.8124 8.70113 19.9913 8.82914 20.1867C8.96043 20.3822 9.06875 20.5875 9.15737 20.8061C9.246 21.0248 9.31493 21.2467 9.36088 21.4786C9.40355 21.7071 9.42653 21.9423 9.42653 22.1775Z" fill="#99415B"/>
<mask id="mask3_138_1280" style="mask-type:luminance" maskUnits="userSpaceOnUse" x="0" y="22" width="40" height="23">
<path d="M0.72168 22.9261H39.181V44.2114H0.72168V22.9261Z" fill="white"/>
</mask>
<g mask="url(#mask3_138_1280)">
<path d="M1.58177 34.4068C1.91985 32.33 2.86189 30.3856 3.76453 28.5241C3.82033 28.4115 3.863 28.3121 3.92209 28.1962C4.23063 28.3121 4.55558 28.3982 4.89366 28.4545C4.35864 31.4655 5.87837 34.5758 8.83905 36.1094L9.37408 36.3943L9.94849 36.1823C12.4135 35.3012 14.6981 33.8669 16.7101 31.9491C17.8064 30.9156 18.7715 29.7662 19.5986 28.5141L19.6413 28.4413C19.9662 28.4976 20.2912 28.5108 20.6161 28.5108C23.5309 28.5042 25.9795 26.5068 26.7016 23.7973L26.7115 23.7543H29.078C29.8035 26.5102 32.2619 28.5108 35.1767 28.5108C36.3452 28.5108 37.4284 28.1829 38.3605 27.6331C38.7282 28.693 38.8398 29.806 38.6428 30.9123H38.6461C38.3047 32.7937 37.1723 34.3538 35.6198 35.2548L35.587 35.2714C34.0508 36.169 32.1635 36.4506 30.1776 36.7354C28.8548 36.9077 27.7224 37.1164 26.6163 37.378L26.8526 37.3317C23.9215 38.0571 21.1085 39.4781 18.3743 40.8394C14.8786 42.5851 11.5831 44.2346 8.52723 44.2346C8.5141 44.2346 8.49769 44.2346 8.48128 44.2346C6.86308 44.2346 5.36632 43.708 4.15185 42.8202C1.05987 40.6639 1.21415 36.6195 1.58177 34.4068Z" fill="#99415B"/>
</g>
<path d="M5.42253 49.1675C5.04506 49.1675 4.75622 49.088 4.55599 48.929C4.36233 48.7634 4.23104 48.4984 4.16211 48.1341L4.91049 48.0281C4.93674 48.2136 4.98926 48.3527 5.06804 48.4388C5.15338 48.5282 5.27154 48.5713 5.42253 48.5713C5.57024 48.5713 5.68512 48.5249 5.7639 48.4256C5.84267 48.3196 5.88206 48.1738 5.88206 47.9883V46.0937H5.15995V45.4974H6.63044V47.9751C6.63044 48.3461 6.51884 48.6376 6.3022 48.8495C6.09213 49.0615 5.79672 49.1675 5.42253 49.1675Z" fill="black"/>
<path d="M7.69775 49.1145V45.4974H10.5074V46.0804H8.44613V46.9946H10.363V47.5776H8.44613V48.5316H10.6125V49.1145H7.69775Z" fill="black"/>
<path d="M14.4495 48.0679C14.4495 48.4223 14.3182 48.6972 14.0556 48.8893C13.7996 49.0748 13.4188 49.1676 12.9134 49.1676C12.4571 49.1676 12.0993 49.0881 11.8368 48.9291C11.5742 48.7634 11.4035 48.5117 11.3247 48.1738L12.06 48.0546C12.1026 48.2401 12.1945 48.3792 12.3357 48.4653C12.4834 48.5548 12.6836 48.5978 12.9396 48.5978C13.4648 48.5978 13.7274 48.4388 13.7274 48.1208C13.7274 48.0149 13.6946 47.932 13.6355 47.8691C13.5731 47.7995 13.4845 47.7432 13.3729 47.6969C13.2679 47.6538 13.0578 47.6008 12.7427 47.5379C12.4801 47.4683 12.2963 47.4153 12.1912 47.3789C12.0862 47.3458 11.9877 47.2994 11.9024 47.2464C11.8138 47.1934 11.7383 47.1338 11.6792 47.0609C11.6267 46.9814 11.5807 46.8953 11.5479 46.7959C11.5118 46.6998 11.4954 46.5839 11.4954 46.4514C11.4954 46.1268 11.6168 45.8784 11.863 45.7094C12.1059 45.5339 12.4604 45.4445 12.9265 45.4445C13.3729 45.4445 13.7044 45.5173 13.9243 45.6564C14.1508 45.7989 14.2952 46.0274 14.3576 46.3454L13.6355 46.4514C13.5895 46.2924 13.5108 46.1732 13.3992 46.0937C13.2843 46.0142 13.1234 45.9744 12.9134 45.9744C12.4571 45.9744 12.2306 46.1202 12.2306 46.4117C12.2306 46.511 12.2503 46.5905 12.2963 46.6502C12.3488 46.7032 12.421 46.7528 12.5195 46.7959C12.6147 46.8423 12.8083 46.8953 13.0972 46.9549C13.4385 47.0278 13.6814 47.094 13.8324 47.1536C13.9801 47.2166 14.0983 47.2928 14.1869 47.3789C14.2723 47.4584 14.3379 47.5577 14.3839 47.6704C14.4265 47.7863 14.4495 47.9188 14.4495 48.0679Z" fill="black"/>
<path d="M16.9867 46.0804V49.1145H16.2383V46.0804H15.0698V45.4974H18.1421V46.0804H16.9867Z" fill="black"/>
<path d="M22.3427 46.0804V49.1145H21.5943V46.0804H20.4258V45.4974H23.4981V46.0804H22.3427Z" fill="black"/>
<path d="M24.2725 49.1145V45.4974H27.0822V46.0804H25.0208V46.9946H26.9377V47.5776H25.0208V48.5316H27.1872V49.1145H24.2725Z" fill="black"/>
<path d="M31.0242 48.0679C31.0242 48.4223 30.8929 48.6972 30.6303 48.8893C30.3743 49.0748 29.9936 49.1676 29.4881 49.1676C29.0318 49.1676 28.674 49.0881 28.4115 48.9291C28.1489 48.7634 27.9782 48.5117 27.8994 48.1738L28.6347 48.0546C28.6773 48.2401 28.7692 48.3792 28.9104 48.4653C29.0581 48.5548 29.2583 48.5978 29.5143 48.5978C30.0395 48.5978 30.3021 48.4388 30.3021 48.1208C30.3021 48.0149 30.2693 47.932 30.2102 47.8691C30.1478 47.7995 30.0592 47.7432 29.9476 47.6969C29.8426 47.6538 29.6325 47.6008 29.3174 47.5379C29.0548 47.4683 28.871 47.4153 28.766 47.3789C28.6609 47.3458 28.5625 47.2994 28.4771 47.2464C28.3885 47.1934 28.313 47.1338 28.2539 47.0609C28.2014 46.9814 28.1554 46.8953 28.1226 46.7959C28.0865 46.6998 28.0701 46.5839 28.0701 46.4514C28.0701 46.1268 28.1915 45.8784 28.4377 45.7094C28.6806 45.5339 29.0351 45.4445 29.5012 45.4445C29.9476 45.4445 30.2791 45.5173 30.499 45.6564C30.7255 45.7989 30.8699 46.0274 30.9323 46.3454L30.2102 46.4514C30.1642 46.2924 30.0855 46.1732 29.9739 46.0937C29.859 46.0142 29.6981 45.9744 29.4881 45.9744C29.0318 45.9744 28.8053 46.1202 28.8053 46.4117C28.8053 46.511 28.825 46.5905 28.871 46.6502C28.9235 46.7032 28.9957 46.7528 29.0942 46.7959C29.1894 46.8423 29.383 46.8953 29.6719 46.9549C30.0133 47.0278 30.2561 47.094 30.4071 47.1536C30.5548 47.2166 30.673 47.2928 30.7616 47.3789C30.847 47.4584 30.9126 47.5577 30.9586 47.6704C31.0012 47.7863 31.0242 47.9188 31.0242 48.0679Z" fill="black"/>
<path d="M33.5614 46.0804V49.1145H32.813V46.0804H31.6445V45.4974H34.7168V46.0804H33.5614Z" fill="black"/>
<path d="M35.4912 49.1145V45.4974H36.2396V49.1145H35.4912Z" fill="black"/>
<path d="M39.4817 49.1145L37.9193 46.3322C37.9456 46.5971 37.9587 46.8158 37.9587 46.9814V49.1145H37.3022V45.4974H38.1557L39.7443 48.3063C39.7082 48.0513 39.6918 47.8161 39.6918 47.6041V45.4974H40.3614V49.1145H39.4817Z" fill="black"/>
<path d="M43.1203 48.5713C43.3206 48.5713 43.5077 48.5448 43.6849 48.4918C43.8687 48.4322 44.0131 48.356 44.1182 48.2666V47.7631H43.2385V47.2066H44.8009V48.5316C44.6073 48.7369 44.3578 48.8959 44.0525 49.0086C43.7538 49.1146 43.4387 49.1676 43.1072 49.1676C42.5197 49.1676 42.07 49.0052 41.7549 48.6773C41.4398 48.3527 41.2822 47.889 41.2822 47.2861C41.2822 46.6965 41.4398 46.2394 41.7549 45.9214C42.07 45.6035 42.523 45.4445 43.1203 45.4445C43.9606 45.4445 44.4924 45.7591 44.7221 46.3852L44.0394 46.5972C43.9606 46.4117 43.8425 46.2759 43.6849 46.1864C43.5274 46.0904 43.337 46.0407 43.1203 46.0407C42.7691 46.0407 42.5033 46.1533 42.3195 46.3719C42.1356 46.5839 42.0437 46.8886 42.0437 47.2861C42.0437 47.7035 42.1356 48.0215 42.3195 48.2401C42.5098 48.462 42.779 48.5713 43.1203 48.5713Z" fill="black"/>
</g>
<defs>
<clipPath id="clip0_138_1280">
<rect width="49.7867" height="50.2419" fill="white" transform="translate(0.00927734 0.879028)"/>
</clipPath>
</defs>
</svg>
