<svg width="53" height="56" viewBox="0 0 53 56" fill="none" xmlns="http://www.w3.org/2000/svg">
<mask id="mask0_138_1214" style="mask-type:luminance" maskUnits="userSpaceOnUse" x="0" y="0" width="53" height="56">
<path d="M0.228516 0.454102H52.6252V55.5457H0.228516V0.454102Z" fill="white"/>
</mask>
<g mask="url(#mask0_138_1214)">
<path d="M0.228516 0.454102H53.2899V63.2184H0.228516V0.454102Z" fill="white"/>
<path d="M0.228516 0.454102H52.6252V55.5457H0.228516V0.454102Z" fill="white"/>
<path d="M0.228516 0.454102H52.6252V55.5457H0.228516V0.454102Z" fill="#EDF1F4"/>
<path d="M2.17688 0.325562C1.65215 0.325562 1.15539 0.564643 0.809069 0.976598C0.459244 1.38855 0.298325 1.94028 0.364792 2.48465L5.23785 43.4852C5.31481 44.1252 5.68912 44.6806 6.23485 44.9675L25.7306 55.2149C26.2448 55.4871 26.8535 55.4871 27.3677 55.2149L46.8635 44.9675C47.4092 44.6806 47.7835 44.1252 47.8605 43.4852L52.7335 2.48465C52.8 1.94028 52.6391 1.38855 52.2892 0.976598C51.9429 0.564643 51.4462 0.325562 50.9214 0.325562H2.17688Z" fill="#FFC44D"/>
</g>
<mask id="mask1_138_1214" style="mask-type:luminance" maskUnits="userSpaceOnUse" x="0" y="0" width="28" height="56">
<path d="M0.228516 0.454102H27.095V55.5457H0.228516V0.454102Z" fill="white"/>
</mask>
<g mask="url(#mask1_138_1214)">
<path fill-rule="evenodd" clip-rule="evenodd" d="M26.5492 0.325562V55.4209C26.2693 55.4209 25.9894 55.351 25.7306 55.2149L6.23485 44.9675C5.68912 44.6806 5.31481 44.1252 5.23785 43.4852L0.364792 2.48465C0.298325 1.94028 0.459244 1.38855 0.809069 0.976598C1.15539 0.564643 1.65215 0.325562 2.17688 0.325562H26.5492Z" fill="#E5B045"/>
</g>
<path fill-rule="evenodd" clip-rule="evenodd" d="M22.8938 8.01282C23.9048 8.01282 24.7234 8.87351 24.7234 9.9365V43.246C24.7234 43.9338 24.3735 44.5665 23.8103 44.9085C23.2471 45.2543 22.5544 45.2543 21.9877 44.9159L13.459 39.7922C12.5809 39.2662 12.2766 38.0892 12.7768 37.1697C13.2771 36.2464 14.393 35.9264 15.2711 36.4524L21.0677 39.9357V9.9365C21.0677 8.87351 21.8863 8.01282 22.8938 8.01282Z" fill="#CFD8DC"/>
<path fill-rule="evenodd" clip-rule="evenodd" d="M28.3789 9.9365C28.3789 8.87351 29.1975 8.01282 30.205 8.01282H42.3929C43.4004 8.01282 44.219 8.87351 44.219 9.9365C44.219 10.9958 43.4004 11.8565 42.3929 11.8565H32.0346V24.1968L40.7767 22.1517C41.3469 22.0193 41.9416 22.1811 42.3789 22.5857C42.8197 22.9903 43.047 23.5935 42.9946 24.2041L41.7737 38.2952C41.7177 38.9609 41.3364 39.5421 40.7732 39.84L31.0236 44.9674C30.121 45.4419 29.0226 45.0557 28.5713 44.1067C28.12 43.1577 28.4838 42.0028 29.3899 41.5283L38.2265 36.8828L39.1255 26.4772L30.6038 28.4671C30.0616 28.5922 29.4948 28.4561 29.0611 28.0919C28.6308 27.7241 28.3789 27.1761 28.3789 26.5913V9.9365Z" fill="#ECEFF1"/>
</svg>
