<svg width="55" height="58" viewBox="0 0 55 58" fill="none" xmlns="http://www.w3.org/2000/svg">
<mask id="mask0_138_1264" style="mask-type:luminance" maskUnits="userSpaceOnUse" x="0" y="0" width="46" height="48">
<path d="M0.646484 0.412354H45.5932V47.7658H0.646484V0.412354Z" fill="white"/>
</mask>
<g mask="url(#mask0_138_1264)">
<path d="M44.8166 29.0611C44.5509 28.2398 43.8561 27.6628 42.9569 27.528C42.5359 27.4606 42.0496 27.4901 41.4774 27.6122C40.476 27.8228 39.7362 27.9028 39.1926 27.9197C41.2362 24.3776 42.8997 20.3342 43.8561 16.5352C45.4011 10.3859 44.5754 7.58085 43.6068 6.3173C41.0564 2.96049 37.3248 1.16205 32.8289 1.10308C30.4297 1.0736 28.3207 1.56217 27.2254 1.91175C26.2036 1.72643 25.1001 1.62113 23.9475 1.60429C21.7854 1.56638 19.8726 2.05074 18.2377 3.04894C17.3344 2.73305 15.8835 2.29081 14.2077 2.00862C10.2677 1.34315 7.08787 1.86121 4.76635 3.54593C1.95029 5.58866 0.646476 9.13922 0.88762 14.0923C0.965275 15.6633 1.8195 20.4521 3.16826 24.9883C3.94483 27.5996 4.77044 29.7645 5.62874 31.4281C6.83855 33.791 8.13827 35.1809 9.59331 35.6821C10.4107 35.96 11.8944 36.1538 13.4557 34.8228C13.6519 35.0671 13.9135 35.3114 14.2649 35.5389C14.7105 35.8253 15.254 36.0611 15.7976 36.2001C17.7554 36.7013 19.5865 36.5792 21.1518 35.8758C21.16 36.158 21.1682 36.4318 21.1764 36.6676C21.1845 37.0509 21.1968 37.4258 21.2091 37.7753C21.299 40.1466 21.4584 41.9914 21.9243 43.2802C21.9488 43.3518 21.9856 43.4571 22.0224 43.5708C22.2513 44.3036 22.6396 45.5251 23.6287 46.4811C24.6505 47.4751 25.8889 47.7784 27.021 47.7784C27.5891 47.7784 28.1287 47.7026 28.6069 47.5973C30.2989 47.2224 32.224 46.6538 33.6177 44.6195C34.9338 42.6947 35.5714 39.7928 35.6858 35.223C35.7022 35.0966 35.7185 34.9745 35.7308 34.8565C35.739 34.7765 35.7471 34.6965 35.7594 34.6123L36.07 34.6417L36.1477 34.646C37.8725 34.7302 39.9856 34.3511 41.2812 33.7362C42.3071 33.2434 45.5891 31.466 44.8166 29.0611Z" fill="black"/>
</g>
<path d="M41.8653 29.5287C36.7318 30.6196 36.3762 28.8338 36.3762 28.8338C41.7958 20.5702 44.0601 10.087 42.1065 7.522C36.7727 0.521963 27.5439 3.83245 27.3885 3.9209L27.3395 3.92932C26.3259 3.71452 25.1896 3.58395 23.9144 3.56289C21.5929 3.52499 19.8314 4.18624 18.4948 5.23077C18.4948 5.23077 2.02762 -1.73978 2.79192 13.9956C2.95541 17.3397 7.46356 39.3212 12.8382 32.6834C14.8041 30.2531 16.7006 28.202 16.7006 28.202C17.6447 28.8464 18.7728 29.1749 19.9581 29.057L20.048 28.9728C20.0235 29.276 20.0357 29.5708 20.0888 29.9204C18.7033 31.5083 19.1079 31.7905 16.3409 32.3759C13.5371 32.9698 15.1842 34.0227 16.2592 34.3007C17.563 34.6334 20.5752 35.1094 22.6106 32.1779L22.5289 32.5149C23.0725 32.9613 23.4526 35.4168 23.3913 37.6449C23.3259 39.8729 23.285 41.406 23.7101 42.598C24.1392 43.7941 24.5643 46.4813 28.206 45.681C31.2468 45.0113 32.8245 43.2761 33.0411 40.3826C33.1964 38.3272 33.5479 38.6304 33.5724 36.7899L33.8545 35.918C34.1773 33.1298 33.9035 32.2285 35.7795 32.6497L36.2332 32.6918C37.6147 32.755 39.4171 32.4601 40.4798 31.9547C42.7604 30.8681 44.1133 29.0528 41.8612 29.5287H41.8653Z" fill="#336791"/>
<path d="M19.46 15.4906C18.9982 15.4232 18.5772 15.4864 18.3647 15.6507C18.2461 15.7433 18.2094 15.8486 18.2012 15.9244C18.1726 16.1224 18.3074 16.3372 18.3892 16.4467C18.6222 16.7668 18.9614 16.9816 19.2965 17.0321C19.3456 17.0363 19.3946 17.0406 19.4396 17.0406C20.0036 17.0406 20.5104 16.5941 20.5554 16.2614C20.6126 15.8486 20.0241 15.5706 19.46 15.4906Z" fill="white"/>
<path d="M34.7784 15.5032C34.7335 15.1788 34.1735 15.0862 33.6381 15.162C33.1068 15.2378 32.5918 15.4863 32.6327 15.8106C32.6694 16.0633 33.1109 16.4971 33.6381 16.4971C33.6831 16.4971 33.728 16.4929 33.773 16.4887C34.1245 16.4382 34.382 16.2065 34.5046 16.076C34.6926 15.8738 34.7989 15.6506 34.7784 15.5032Z" fill="white"/>
<path d="M43.57 29.4064C43.3738 28.7999 42.7444 28.6019 41.6981 28.8251C38.5918 29.4822 37.4801 29.0273 37.1123 28.7493C39.5278 24.9713 41.5142 20.4015 42.585 16.1392C43.0959 14.1217 43.3738 12.2474 43.3984 10.7185C43.4229 9.04225 43.145 7.80819 42.5728 7.05427C40.2594 4.01756 36.863 2.3918 32.7554 2.34547C29.9311 2.31177 27.5442 3.05726 27.0824 3.26364C26.1096 3.01514 25.0469 2.86352 23.8903 2.84246C21.769 2.80877 19.9339 3.33103 18.4175 4.39241C17.7595 4.1397 16.0552 3.54162 13.9707 3.19625C10.3699 2.59818 7.50887 3.04884 5.46528 4.53561C3.02932 6.31299 1.90535 9.48028 2.12197 13.9616C2.19554 15.4695 3.02932 20.1025 4.34948 24.5417C6.08653 30.3877 7.97481 33.694 9.96118 34.3763C10.1901 34.4563 10.4598 34.5111 10.7541 34.5111C11.4816 34.5111 12.3685 34.1741 13.2922 33.0327C14.829 31.1374 16.2595 29.5454 16.7868 28.9683C17.5674 29.3979 18.4257 29.6422 19.3045 29.6633C19.3045 29.6886 19.3085 29.7138 19.3085 29.7349C19.1328 29.9497 18.9897 30.1392 18.8671 30.2993C18.2581 31.0911 18.1314 31.2553 16.1778 31.6681C15.6178 31.786 14.1424 32.0977 14.1178 33.1633C14.0974 34.33 15.8671 34.8143 16.0674 34.8649C16.7704 35.046 17.4489 35.1386 18.0947 35.1386C19.6682 35.1386 21.0497 34.6079 22.1532 33.5803C22.1205 37.7247 22.2881 41.8101 22.7704 43.0568C23.1668 44.0761 24.1396 46.5653 27.2009 46.5653C27.6505 46.5653 28.145 46.5105 28.6886 46.3926C31.8848 45.6892 33.2703 44.2362 33.8099 41.0394C34.096 39.3294 34.5905 35.2439 34.8194 33.0538C35.3098 33.2096 35.9434 33.2854 36.6218 33.2854C38.0442 33.2854 39.6831 32.9738 40.709 32.481C41.8657 31.9334 43.9501 30.5815 43.57 29.4064ZM35.9597 14.6061C35.9474 15.2547 35.8616 15.8401 35.7717 16.455C35.6736 17.1121 35.5714 17.7944 35.5428 18.6199C35.5183 19.4244 35.6164 20.2625 35.7104 21.0712C35.9025 22.7054 36.0987 24.3901 35.3385 26.0495C35.2199 25.8347 35.1055 25.5989 35.0033 25.3378C34.9093 25.1019 34.7009 24.727 34.4188 24.2006C33.3153 22.1705 30.7281 17.4069 32.0524 15.4611C32.4488 14.884 33.4461 14.286 35.9597 14.6061ZM32.9148 3.65534C36.5973 3.73958 39.5074 5.15475 41.5714 7.85873C43.1531 9.93515 41.4079 19.3822 36.3684 27.5321C36.3194 27.4647 36.2703 27.4015 36.2172 27.3341C36.1968 27.3047 36.1722 27.2794 36.1518 27.2499C37.4556 25.0387 37.2022 22.8528 36.9733 20.9153C36.8793 20.1193 36.7935 19.3696 36.8139 18.662C36.8384 17.9123 36.9365 17.2721 37.0265 16.653C37.1409 15.8864 37.2594 15.0946 37.2267 14.1638C37.2513 14.0669 37.2594 13.949 37.2472 13.8142C37.1654 12.9171 36.1722 10.2426 34.145 7.82082C33.0374 6.4941 31.4229 5.01154 29.2159 4.01334C30.1641 3.81118 31.4597 3.62165 32.9148 3.65534ZM12.3154 32.1988C11.2936 33.4539 10.5906 33.2138 10.3617 33.138C8.85355 32.62 7.10833 29.3474 5.56337 24.1627C4.23095 19.6729 3.45439 15.162 3.38899 13.8943C3.1969 9.89303 4.14104 7.10481 6.19688 5.60541C9.54837 3.16677 15.0497 4.62406 17.265 5.36534C17.2323 5.39903 17.1996 5.42851 17.1669 5.46221C13.5375 9.22757 13.6233 15.659 13.6315 16.0549C13.6315 16.2065 13.6437 16.4213 13.6601 16.7162C13.7255 17.7986 13.8399 19.8119 13.5293 22.0947C13.2391 24.2132 13.8767 26.2896 15.2745 27.7848C15.4176 27.9406 15.5688 28.0839 15.7241 28.2228C15.1028 28.9052 13.7541 30.4214 12.3154 32.1988ZM16.1941 26.8793C15.0661 25.6747 14.5552 23.9942 14.7881 22.2758C15.1151 19.8624 14.9966 17.7649 14.9312 16.6404C14.923 16.4803 14.9148 16.3413 14.9107 16.2318C15.438 15.7517 17.8985 14.3997 19.6478 14.8124C20.4489 14.9978 20.9352 15.5579 21.1396 16.5224C22.1859 21.5008 21.2786 23.5772 20.547 25.2493C20.3957 25.5905 20.2527 25.9148 20.1301 26.2517L20.0402 26.5128C19.799 27.1699 19.5783 27.7806 19.4393 28.3576C18.2418 28.3534 17.0769 27.8311 16.1941 26.8793ZM16.378 33.6013C16.0265 33.5087 15.7118 33.3528 15.5279 33.2265C15.6832 33.1507 15.9571 33.0496 16.4312 32.9485C18.7323 32.4641 19.0878 32.1188 19.8644 31.1079C20.0442 30.8763 20.2445 30.6109 20.5224 30.2908C20.9393 29.8107 21.1314 29.8907 21.4748 30.0381C21.7568 30.1603 22.0265 30.5183 22.1369 30.9142C22.19 31.0995 22.2472 31.4575 22.0592 31.7355C20.4366 34.0646 18.0742 34.0351 16.378 33.6013ZM28.423 45.1122C25.6069 45.7313 24.6096 44.2572 23.9516 42.5725C23.5265 41.4816 23.3181 36.5707 23.4693 31.1458C23.4693 31.0742 23.457 31.0026 23.4407 30.9395C23.4243 30.8131 23.3957 30.6868 23.3589 30.5562C23.1423 29.7644 22.6069 29.1073 21.9611 28.8336C21.7077 28.724 21.2377 28.5219 20.6737 28.6735C20.7963 28.1639 21.0047 27.5911 21.2295 26.9677L21.3235 26.7066C21.4298 26.4118 21.5647 26.1043 21.7077 25.7842C22.472 24.0363 23.5183 21.644 22.3821 16.2444C21.957 14.2228 20.5347 13.233 18.3767 13.4647C17.0851 13.5994 15.9039 14.1343 15.3113 14.4418C15.1846 14.5092 15.0701 14.5724 14.9598 14.6355C15.1274 12.597 15.7486 8.78533 18.0742 6.37617C19.5415 4.85992 21.4911 4.11022 23.8698 4.14812C28.5497 4.22815 31.5537 6.69627 33.2499 8.75585C34.709 10.529 35.5019 12.3148 35.8167 13.2751C33.442 13.0266 31.8276 13.511 31.0101 14.7113C29.2281 17.3269 31.9829 22.4021 33.3071 24.8365C33.5524 25.2872 33.7608 25.6705 33.8262 25.8347C34.2554 26.9088 34.8153 27.6248 35.224 28.1512C35.3466 28.3113 35.4692 28.4671 35.5592 28.6019C34.8398 28.8125 33.5524 29.3053 33.6668 31.765C33.5728 32.999 32.8984 38.7734 32.5551 40.8162C32.1014 43.5117 31.1368 44.5141 28.423 45.1122ZM40.1736 31.2975C39.4379 31.647 38.2077 31.9124 37.0387 31.9671C35.7472 32.0303 35.0932 31.8197 34.9379 31.6892C34.8643 30.1603 35.4202 29.996 36.0088 29.8275C36.0987 29.8023 36.1927 29.777 36.2785 29.7433C36.3316 29.7896 36.3929 29.8318 36.4543 29.8781C37.4924 30.5815 39.3439 30.6573 41.9556 30.1013C41.9638 30.1013 41.976 30.1013 41.9842 30.0971C41.6327 30.4383 41.0278 30.8889 40.1736 31.2975Z" fill="white"/>
<mask id="mask1_138_1264" style="mask-type:luminance" maskUnits="userSpaceOnUse" x="0" y="49" width="55" height="9">
<path d="M0.929688 49.6021H54.3981V57.5876H0.929688V49.6021Z" fill="white"/>
</mask>
<g mask="url(#mask1_138_1264)">
<path d="M4.273 52.8028H1.67764V50.2463H4.41196C5.41332 50.2463 5.91604 50.6801 5.91604 51.5435C5.91604 52.3817 5.36836 52.7986 4.273 52.7986M6.13675 50.2168C5.78116 49.9051 5.28662 49.7493 4.64493 49.7493L0.929688 49.7703V55.8817H1.67764L1.66947 53.2788H4.43648C5.1313 53.2788 5.6749 53.1229 6.07544 52.8113C6.4719 52.4996 6.66808 52.0658 6.66808 51.514C6.66808 50.9623 6.49233 50.5285 6.13675 50.2168ZM10.9841 54.5971C10.9106 54.8035 10.792 54.9804 10.6286 55.1193C10.2934 55.4394 9.78251 55.5995 9.09178 55.5995C8.47053 55.5995 7.99642 55.4437 7.66127 55.132C7.33021 54.8203 7.16263 54.4033 7.16263 53.8811C7.16263 53.6115 7.20759 53.3672 7.29342 53.1608C7.37925 52.9503 7.50595 52.7692 7.67353 52.6259C8.01685 52.3185 8.49096 52.1669 9.09178 52.1669C10.4283 52.1669 11.0986 52.7397 11.0986 53.8853C11.0986 54.1548 11.0577 54.3949 10.9841 54.6013M11.119 52.3438C10.6653 51.9394 9.98687 51.733 9.09178 51.733C8.24982 51.733 7.59587 51.9436 7.13402 52.3564C6.71713 52.7355 6.50868 53.2409 6.50868 53.8811C6.50868 54.5171 6.7253 55.0309 7.15446 55.4184C7.39151 55.629 7.66944 55.7806 7.98007 55.8775C8.29478 55.9701 8.66671 56.0165 9.09178 56.0165C9.98278 56.0165 10.6613 55.8185 11.1231 55.4142C11.54 55.0435 11.7484 54.5339 11.7484 53.8811C11.7484 53.224 11.54 52.7144 11.119 52.3438ZM16.7838 54.774C16.7838 55.5995 16.0318 56.008 14.5236 56.008C14.0659 56.008 13.6776 55.9828 13.3629 55.9238C13.0482 55.8648 12.7907 55.7722 12.5945 55.6374C12.4433 55.5405 12.3206 55.4057 12.2307 55.2457C12.1408 55.0814 12.0836 54.8793 12.0591 54.635L12.758 54.6266C12.758 54.9509 12.8806 55.1909 13.1299 55.3426C13.3915 55.5279 13.8574 55.6205 14.5277 55.6205C15.5781 55.6205 16.1054 55.3594 16.1054 54.8456C16.1054 54.5423 15.9296 54.3317 15.574 54.218C15.5046 54.197 15.0795 54.1422 14.2988 54.0453C13.5182 53.9527 13.0318 53.8684 12.8397 53.7926C12.4269 53.6326 12.2185 53.342 12.2185 52.9208C12.2185 52.508 12.4024 52.2006 12.7743 52.0026C12.9582 51.9184 13.1871 51.851 13.461 51.8089C13.7389 51.7625 14.0577 51.7373 14.4174 51.7373C15.8683 51.7373 16.5917 52.1837 16.5917 53.0724H15.9255C15.9255 52.4491 15.4146 52.1332 14.3969 52.1332C13.8779 52.1332 13.4937 52.1963 13.2403 52.3269C12.9869 52.4533 12.8561 52.647 12.8561 52.9124C12.8561 53.1566 13.0277 53.3335 13.3751 53.443C13.5754 53.4978 14.0373 53.5652 14.7607 53.641C15.4106 53.6957 15.8561 53.7758 16.0972 53.8811C16.555 54.058 16.7879 54.357 16.7879 54.774H16.7838ZM19.5345 55.8901L19.2484 55.928L19.0727 55.9406C18.6149 55.9406 18.2879 55.8775 18.0836 55.7469C17.8833 55.6163 17.7811 55.3889 17.7811 55.0646V52.2764H16.9514V51.8636H17.777L17.7811 50.5453H18.4228V51.8678H19.5345V52.2848L18.4228 52.2764V54.993C18.4228 55.1952 18.4759 55.3341 18.5863 55.41C18.6966 55.4858 18.8928 55.5279 19.1708 55.5279C19.2116 55.5321 19.2566 55.5279 19.3056 55.5237C19.3547 55.5153 19.4282 55.4984 19.5263 55.4731L19.5345 55.8901ZM23.9528 54.9635C23.777 55.1067 23.5808 55.212 23.356 55.2878C23.1312 55.3594 22.8737 55.3973 22.5835 55.3973C21.2511 55.3973 20.5808 54.8582 20.5808 53.7758C20.5808 53.2746 20.7525 52.8787 21.0958 52.5965C21.4351 52.3101 21.9173 52.1711 22.5386 52.1711C23.1639 52.1711 23.638 52.3143 23.9609 52.6007C24.2879 52.8871 24.4473 53.2704 24.4473 53.7505C24.4473 54.2728 24.2838 54.6813 23.9528 54.9635ZM25.089 51.872H24.4473L24.4432 52.5586C24.1612 52.2806 23.9609 52.1037 23.8383 52.0279C23.4827 51.8341 23.0168 51.7415 22.4487 51.7415C21.619 51.7415 20.9855 51.9268 20.544 52.2974C20.1312 52.6386 19.9228 53.1314 19.9228 53.78C19.9228 54.1001 19.9759 54.3865 20.0822 54.6392C20.1844 54.8877 20.3397 55.1025 20.54 55.2752C20.9773 55.6374 21.5985 55.8143 22.3996 55.8143C23.3642 55.8143 24.0468 55.5574 24.4473 55.0435V55.7553C24.4473 56.2102 24.3002 56.564 24.01 56.8125C23.7157 57.061 23.2334 57.1873 22.5631 57.1873C21.9337 57.1873 21.4841 57.1031 21.2184 56.9304C21.0141 56.7999 20.8751 56.5766 20.8015 56.2523H20.1435C20.2171 56.703 20.4092 57.0273 20.728 57.2295C21.0958 57.4611 21.713 57.579 22.5835 57.579C24.2511 57.579 25.089 56.9725 25.089 55.7553V51.8678V51.872ZM28.5426 52.2764C28.3506 52.2469 28.1707 52.23 28.0072 52.23C26.9568 52.23 26.4337 52.7944 26.4337 53.9232V55.8817H25.8002L25.792 51.872L26.4337 51.8762V52.5923H26.4664C26.5726 52.3101 26.7443 52.0953 26.9773 51.9521C27.2307 51.8089 27.6108 51.7373 28.1135 51.7373H28.5426V52.2764ZM29.1353 53.6241C29.217 53.1651 29.3969 52.8113 29.6789 52.5628C29.8628 52.4196 30.0713 52.3101 30.3001 52.2385C30.5331 52.1669 30.7947 52.129 31.0849 52.129C31.653 52.129 32.1189 52.2806 32.4786 52.588C32.8383 52.8913 33.0181 53.2367 33.0181 53.6199H29.1353M33.0753 52.3817C32.8546 52.1626 32.5767 52.0026 32.2456 51.8973C31.9146 51.792 31.5263 51.7373 31.0849 51.7373C30.2552 51.7373 29.6135 51.9268 29.1598 52.3059C28.702 52.6807 28.4732 53.1945 28.4732 53.8432C28.4732 54.4918 28.6939 55.0056 29.1312 55.3847C29.6053 55.8059 30.2756 56.0165 31.138 56.0165C31.4813 56.0165 31.8001 55.9786 32.0944 55.9027C32.3846 55.8269 32.6421 55.7174 32.8587 55.5784C33.2429 55.3089 33.4881 54.9761 33.5903 54.576H32.8996C32.6625 55.2625 32.074 55.6079 31.1298 55.6079C30.4636 55.6079 29.9527 55.4394 29.5971 55.1025C29.2865 54.8161 29.1353 54.4412 29.1353 53.9864H33.6884C33.6884 53.3041 33.484 52.7692 33.0753 52.3859V52.3817ZM40.4363 54.2391C40.4363 55.431 39.4554 56.0291 37.4936 56.0291C36.3165 56.0291 35.4582 55.8227 34.9186 55.41C34.4772 55.073 34.2524 54.5592 34.2524 53.8684H35.0453C35.0453 54.9804 35.8587 55.5363 37.4936 55.5363C38.2742 55.5363 38.8423 55.4226 39.1897 55.1952C39.484 54.993 39.6312 54.6771 39.6312 54.2517C39.6312 53.8263 39.4309 53.5273 39.0263 53.3588C38.8015 53.2661 38.2415 53.1482 37.3587 53.0092C36.2429 52.8408 35.5235 52.6765 35.1925 52.5122C34.7143 52.2637 34.4731 51.851 34.4731 51.2613C34.4731 50.718 34.6775 50.3095 35.0862 50.0441C35.5235 49.7535 36.2715 49.6061 37.3383 49.6061C39.2592 49.6061 40.2197 50.2336 40.2197 51.4845H39.4227C39.4227 50.5453 38.7115 50.0778 37.281 50.0778C36.5658 50.0778 36.0426 50.1705 35.7116 50.36C35.3968 50.5622 35.2415 50.857 35.2415 51.2487C35.2415 51.653 35.4418 51.9436 35.8464 52.1079C36.059 52.2048 36.6925 52.3395 37.7388 52.508C38.7197 52.6554 39.3859 52.8239 39.7293 53.0134C40.1993 53.2493 40.4322 53.6621 40.4322 54.2433L40.4363 54.2391ZM46.8491 54.8498C46.5548 55.0814 46.2238 55.2541 45.8518 55.3721C45.4799 55.49 45.063 55.5447 44.6012 55.5447C43.6611 55.5447 42.905 55.2962 42.3246 54.8035C41.7442 54.3065 41.454 53.6452 41.454 52.8197C41.454 51.9605 41.7442 51.2866 42.3164 50.8064C42.8927 50.3263 43.657 50.0862 44.6053 50.0862C45.5657 50.0862 46.3219 50.3389 46.8736 50.8401C47.1638 51.0844 47.3804 51.3708 47.5194 51.6993C47.6584 52.0279 47.7238 52.4027 47.7238 52.8197C47.7238 53.6789 47.4336 54.357 46.8532 54.854M47.2742 55.2583C47.6829 54.9761 47.9894 54.6308 48.1856 54.2264C48.3818 53.8179 48.4799 53.3546 48.4799 52.8239C48.4799 51.872 48.1611 51.1139 47.5153 50.5411C47.1679 50.2252 46.7551 49.9894 46.2646 49.8377C45.7783 49.6861 45.2224 49.6061 44.5971 49.6061C43.3791 49.6061 42.4268 49.8967 41.732 50.4737C41.0412 51.0507 40.6938 51.8341 40.6938 52.8239C40.6938 53.7842 41.0412 54.5592 41.7442 55.153C42.4431 55.7427 43.3995 56.0375 44.6093 56.0375C45.0835 56.0375 45.4963 56.0038 45.8518 55.9449C46.2033 55.8817 46.5017 55.7848 46.7469 55.6542L47.9159 56.4461L48.4022 56.008L47.2742 55.2583ZM54.394 55.8859H48.999V49.7619L49.7387 49.7493V55.3721H54.4022L54.394 55.8817V55.8859Z" fill="black"/>
</g>
</svg>
